<svg data-v-fde0c5aa=""
  xmlns="http://www.w3.org/2000/svg" viewBox="0 0 300 300" class="iconLeft">  <!---->
  <defs data-v-fde0c5aa="">    <!----></defs>
  <rect data-v-fde0c5aa="" fill="#FF3435" x="0" y="0" width="200px" height="200px" class="logo-background-square"></rect>
  <defs data-v-fde0c5aa="">    <!----></defs>
  <g data-v-fde0c5aa="" id="6657140b-8d88-4556-a352-4d4b0e90d546" fill="#F7F9FD" transform="matrix(3.7247560869846676,0,0,3.7247560869846676,103.56024945293753,111.05767361864955)">
    <path d="M0.81 11.42C0.81 12.66 1.78 13.57 3.22 13.57C4.48 13.57 5.52 13.12 6.13 12.11L6.15 13.55L6.72 13.55L6.69 8.71C6.68 7.20 5.74 6.24 4.02 6.24C2.91 6.24 2.07 6.65 1.20 7.28L1.48 7.73C2.25 7.14 3.02 6.78 3.93 6.78C5.39 6.78 6.10 7.52 6.12 8.75L6.12 9.46L3.53 9.46C1.85 9.46 0.81 10.21 0.81 11.42ZM1.37 11.41C1.37 10.47 2.16 9.98 3.58 9.98L6.13 9.98L6.13 11.17C5.68 12.45 4.66 13.03 3.30 13.03C2.11 13.03 1.37 12.38 1.37 11.41ZM8.33 12.56C9.00 13.20 9.98 13.57 11.00 13.57C12.32 13.57 13.54 12.96 13.54 11.61C13.54 9.03 9.28 10.00 9.28 8.04C9.28 7.17 10.08 6.78 11.10 6.78C11.80 6.78 12.45 6.97 12.95 7.29L13.20 6.82C12.63 6.47 11.93 6.24 11.12 6.24C9.83 6.24 8.72 6.80 8.72 8.08C8.72 10.58 13.03 9.65 12.98 11.70C12.94 12.63 12.05 13.03 11.03 13.03C10.11 13.03 9.23 12.70 8.60 12.11ZM14.70 6.94L15.76 6.94L15.76 11.54C15.76 12.91 16.38 13.58 17.42 13.57C17.96 13.57 18.48 13.37 18.94 13.05L18.72 12.57C18.34 12.84 17.91 12.99 17.49 12.99C16.73 13.01 16.32 12.50 16.32 11.47L16.32 6.94L18.80 6.94L18.80 6.44L16.32 6.44L16.32 4.63L15.76 4.63L15.76 6.44L14.70 6.44ZM19.94 9.91C19.94 12.05 21.43 13.57 23.49 13.57C24.65 13.57 25.65 13.13 26.32 12.40L25.98 12.03C25.40 12.67 24.51 13.03 23.52 13.03C21.83 13.03 20.59 11.84 20.51 10.07L26.88 10.07C26.92 7.81 25.63 6.24 23.49 6.24C21.43 6.24 19.94 7.77 19.94 9.91ZM20.52 9.55C20.66 7.90 21.85 6.78 23.49 6.78C25.16 6.78 26.24 7.90 26.35 9.55ZM27.36 15.86C27.73 16.14 28.21 16.28 28.74 16.28C29.60 16.28 30.31 15.69 30.76 14.60L34.15 6.26L33.53 6.26L30.91 12.87L28.22 6.26L27.61 6.26L30.62 13.55L30.28 14.38C29.93 15.23 29.37 15.69 28.71 15.69C28.31 15.69 27.93 15.58 27.61 15.36ZM34.80 9.90C34.80 12.05 36.33 13.57 38.40 13.57C40.49 13.57 42.00 12.05 42.00 9.90C42.00 7.77 40.49 6.24 38.40 6.24C36.33 6.24 34.80 7.77 34.80 9.90ZM35.38 9.91C35.38 8.08 36.65 6.80 38.40 6.80C40.17 6.80 41.43 8.08 41.43 9.91C41.43 11.75 40.17 13.02 38.40 13.02C36.65 13.02 35.38 11.75 35.38 9.91Z"></path>
  </g>
  <defs data-v-fde0c5aa="">    <!----></defs>
  <g data-v-fde0c5aa="" id="a93c2b67-22ef-448c-a9ab-eb9f5f37e526" stroke="none" fill="#F7F9FD" transform="matrix(2.0340661192825267,0,0,2.0340661192825267,34.24359303761738,117.45494209147958)">
    <path d="M2.83 18.247l26.34-9.124L2.83 0zM29.17 32V13.753L2.83 22.877z"></path>
  </g>  <!----></svg>
